<svg width="35" height="35" viewBox="0 0 35 35" fill="none" xmlns="http://www.w3.org/2000/svg">
<path fill-rule="evenodd" clip-rule="evenodd" d="M15.315 2.04527C15.9793 1.66246 16.7326 1.46094 17.4993 1.46094C18.2662 1.46094 19.0195 1.66247 19.6838 2.04532C19.6848 2.04591 19.6858 2.04649 19.6868 2.04708L29.8952 7.8804C30.5596 8.26401 31.1115 8.8156 31.4954 9.47983C31.8794 10.1441 32.0819 10.8976 32.0827 11.6648V23.3344C32.0819 24.1017 31.8794 24.8552 31.4954 25.5194C31.1115 26.1836 30.5596 26.7352 29.8952 27.1188L29.8896 27.122L19.6868 32.9521C19.686 32.9527 19.6851 32.9532 19.6842 32.9537C19.0198 33.3367 18.2663 33.5383 17.4993 33.5383C16.7324 33.5383 15.979 33.3367 15.3145 32.9537C15.3136 32.9532 15.3127 32.9527 15.3118 32.9521L5.10915 27.122L5.10352 27.1188C4.43909 26.7352 3.88722 26.1836 3.50328 25.5194C3.11933 24.8552 2.9168 24.1017 2.91602 23.3344V11.6648C2.9168 10.8976 3.11933 10.1441 3.50328 9.47983C3.88722 8.8156 4.43909 8.26401 5.10352 7.88041L5.10914 7.87716L15.315 2.04527ZM17.4993 4.3776C17.2434 4.3776 16.9919 4.44499 16.7702 4.57298L16.7646 4.57623L6.56185 10.4063C6.56108 10.4068 6.56032 10.4072 6.55955 10.4076C6.3391 10.5355 6.15597 10.7188 6.02843 10.9395C5.90056 11.1607 5.83305 11.4116 5.83268 11.6671V23.3321C5.83305 23.5876 5.90056 23.8385 6.02843 24.0598C6.15597 24.2804 6.3391 24.4638 6.55955 24.5916C6.56032 24.592 6.56108 24.5925 6.56185 24.5929L16.7702 30.4262C16.9919 30.5542 17.2434 30.6216 17.4993 30.6216C17.7553 30.6216 18.0068 30.5542 18.2285 30.4262L18.2341 30.423L28.4369 24.5929C28.4376 24.5925 28.4384 24.592 28.4392 24.5916C28.6596 24.4638 28.8427 24.2804 28.9703 24.0598C29.0982 23.8384 29.1658 23.5872 29.166 23.3314V11.6678C29.1658 11.412 29.0982 11.1609 28.9703 10.9395C28.8427 10.7188 28.6596 10.5355 28.4392 10.4077C28.4384 10.4072 28.4376 10.4068 28.4369 10.4063L18.2285 4.573C18.0068 4.445 17.7553 4.3776 17.4993 4.3776Z" fill="#161719"/>
<path fill-rule="evenodd" clip-rule="evenodd" d="M3.50678 9.41976C3.91007 8.72259 4.80217 8.48435 5.49934 8.88764L17.5004 15.8298L29.5014 8.88764C30.1986 8.48435 31.0907 8.72259 31.494 9.41976C31.8973 10.1169 31.659 11.009 30.9618 11.4123L18.2306 18.7769C17.7788 19.0382 17.2219 19.0382 16.7701 18.7769L4.0389 11.4123C3.34173 11.009 3.10349 10.1169 3.50678 9.41976Z" fill="#161719"/>
<path fill-rule="evenodd" clip-rule="evenodd" d="M17.4993 16.042C18.3048 16.042 18.9577 16.6949 18.9577 17.5003V32.2003C18.9577 33.0057 18.3048 33.6587 17.4993 33.6587C16.6939 33.6587 16.041 33.0057 16.041 32.2003V17.5003C16.041 16.6949 16.6939 16.042 17.4993 16.042Z" fill="#161719"/>
</svg>
