<svg width="36" height="36" viewBox="0 0 36 36" fill="none" xmlns="http://www.w3.org/2000/svg">
<circle cx="18" cy="18" r="18" fill="#5D5D5D"/>
<path d="M25.3125 10.4688H22.6055L21.2744 8.47266C21.2031 8.36577 21.1065 8.27813 20.9933 8.21749C20.88 8.15684 20.7535 8.12508 20.625 8.125H14.375C14.2465 8.12508 14.12 8.15684 14.0067 8.21749C13.8935 8.27813 13.7969 8.36577 13.7256 8.47266L12.3936 10.4688H9.6875C9.0659 10.4688 8.46976 10.7157 8.03022 11.1552C7.59068 11.5948 7.34375 12.1909 7.34375 12.8125V23.75C7.34375 24.3716 7.59068 24.9677 8.03022 25.4073C8.46976 25.8468 9.0659 26.0938 9.6875 26.0938H25.3125C25.9341 26.0938 26.5302 25.8468 26.9698 25.4073C27.4093 24.9677 27.6562 24.3716 27.6562 23.75V12.8125C27.6562 12.1909 27.4093 11.5948 26.9698 11.1552C26.5302 10.7157 25.9341 10.4688 25.3125 10.4688ZM21.0156 17.8906C21.0156 18.5859 20.8094 19.2657 20.4231 19.8438C20.0368 20.4219 19.4878 20.8725 18.8454 21.1386C18.203 21.4047 17.4961 21.4743 16.8141 21.3387C16.1322 21.203 15.5057 20.8682 15.0141 20.3765C14.5224 19.8849 14.1876 19.2585 14.0519 18.5765C13.9163 17.8945 13.9859 17.1876 14.252 16.5453C14.5181 15.9029 14.9687 15.3538 15.5468 14.9675C16.125 14.5812 16.8047 14.375 17.5 14.375C18.4324 14.375 19.3266 14.7454 19.9859 15.4047C20.6452 16.064 21.0156 16.9582 21.0156 17.8906Z" fill="white"/>
</svg>
