<svg width="17" height="17" viewBox="0 0 17 17" fill="none" xmlns="http://www.w3.org/2000/svg">
<circle cx="8.5" cy="8.5" r="8.5" fill="#99AAFF"/>
<path d="M14.9836 5.20122L7.48364 12.7012C7.41832 12.7668 7.3407 12.8188 7.25523 12.8543C7.16977 12.8898 7.07814 12.908 6.98559 12.908C6.89305 12.908 6.80142 12.8898 6.71596 12.8543C6.63049 12.8188 6.55287 12.7668 6.48755 12.7012L3.2063 9.41997C3.14089 9.35457 3.08901 9.27692 3.05362 9.19146C3.01822 9.10601 3 9.01442 3 8.92192C3 8.82943 3.01822 8.73784 3.05362 8.65238C3.08901 8.56693 3.14089 8.48928 3.2063 8.42388C3.2717 8.35847 3.34935 8.30659 3.4348 8.27119C3.52026 8.2358 3.61185 8.21758 3.70434 8.21758C3.79684 8.21758 3.88843 8.2358 3.97389 8.27119C4.05934 8.30659 4.13699 8.35847 4.20239 8.42388L6.98618 11.2077L13.9887 4.2063C14.1208 4.07421 14.3 4 14.4868 4C14.6736 4 14.8527 4.07421 14.9848 4.2063C15.1169 4.33839 15.1911 4.51754 15.1911 4.70434C15.1911 4.89115 15.1169 5.0703 14.9848 5.20239L14.9836 5.20122Z" fill="white"/>
</svg>
