<svg width="31" height="31" viewBox="0 0 31 31" fill="none" xmlns="http://www.w3.org/2000/svg">
<rect width="31" height="31" fill="white"/>
<path fill-rule="evenodd" clip-rule="evenodd" d="M14.7076 1.56408C15.1741 1.2013 15.8272 1.2013 16.2937 1.56408L27.9187 10.6057C28.2333 10.8505 28.4173 11.2267 28.4173 11.6253V25.8337C28.4173 26.8614 28.0091 27.847 27.2824 28.5737C26.5557 29.3004 25.57 29.7087 24.5423 29.7087H6.45898C5.43127 29.7087 4.44565 29.3004 3.71895 28.5737C2.99224 27.847 2.58398 26.8614 2.58398 25.8337V11.6253C2.58398 11.2267 2.76801 10.8505 3.08264 10.6057L14.7076 1.56408ZM5.16732 12.2571V25.8337C5.16732 26.1762 5.3034 26.5048 5.54564 26.747C5.78787 26.9892 6.11641 27.1253 6.45898 27.1253H24.5423C24.8849 27.1253 25.2134 26.9892 25.4557 26.747C25.6979 26.5048 25.834 26.1762 25.834 25.8337V12.2571L15.5007 4.22002L5.16732 12.2571Z" fill="#161719"/>
<path fill-rule="evenodd" clip-rule="evenodd" d="M17.6721 16.6922C21.0099 14.8972 24.9082 14.9694 27.4612 15.5367L26.7888 18.5629C24.6918 18.0969 21.6151 18.0916 19.1404 19.4224C16.813 20.6741 14.725 23.263 14.725 28.6748H11.625C11.625 22.3066 14.187 18.5664 17.6721 16.6922Z" fill="#161719"/>
</svg>
