<svg width="26" height="26" viewBox="0 0 26 26" fill="none" xmlns="http://www.w3.org/2000/svg">
<path fill-rule="evenodd" clip-rule="evenodd" d="M10.834 12.9997C10.834 11.8031 11.804 10.833 13.0007 10.833C14.1973 10.833 15.1673 11.8031 15.1673 12.9997C15.1673 14.1963 14.1973 15.1663 13.0007 15.1663C11.804 15.1663 10.834 14.1963 10.834 12.9997Z" fill="#161719"/>
<path fill-rule="evenodd" clip-rule="evenodd" d="M10.834 5.41667C10.834 4.22005 11.804 3.25 13.0007 3.25C14.1973 3.25 15.1673 4.22005 15.1673 5.41667C15.1673 6.61328 14.1973 7.58333 13.0007 7.58333C11.804 7.58333 10.834 6.61328 10.834 5.41667Z" fill="#161719"/>
<path fill-rule="evenodd" clip-rule="evenodd" d="M10.834 20.5837C10.834 19.387 11.804 18.417 13.0007 18.417C14.1973 18.417 15.1673 19.387 15.1673 20.5837C15.1673 21.7803 14.1973 22.7503 13.0007 22.7503C11.804 22.7503 10.834 21.7803 10.834 20.5837Z" fill="#161719"/>
</svg>
