<svg width="256" height="256" viewBox="0 0 256 256" fill="none" xmlns="http://www.w3.org/2000/svg">
<path d="M242.6 81.1004L174.9 13.3004C172.8 11.2004 169.8 10.1004 167 9.90039C164 9.90039 161.2 11.3004 159.1 13.4004C147.1 26.0004 141.4 43.1004 143.2 60.2004L120.9 82.5004C110.3 78.4004 98.9 76.2004 87.5 76.2004C62.9 76.2004 39.8 85.8004 22.4 103.1L20.7 104.7C18.6 106.8 17.4 109.6 17.4 112.5C17.4 115.4 18.6 118.3 20.7 120.3L66 165.6L11.6 234C10.6 235.3 10 236.9 10 238.6C10 242.7 13.3 246 17.4 246C19.1 246 20.7 245.4 22 244.4L90 190.1L135.3 235.4C137.4 237.5 140.2 238.7 143.1 238.7C146 238.7 148.9 237.5 150.9 235.4L152.5 233.8C178.5 207.8 186.4 169.1 173.2 135.3L195.5 113C212.7 114.8 229.8 109 242.3 97.1004C244.4 95.1004 245.8 92.2004 245.8 89.2004C246 86.1004 244.7 83.2004 242.6 81.1004ZM201.7 91.1004C199.1 91.1004 196.5 90.8004 194 90.3004C190.3 89.5004 186.5 90.7004 183.9 93.3004L152.3 124.9C149 128.2 148.1 133.4 150.2 137.6C162.2 161.9 159 190.6 142.7 211.5L44.4 113.2C56.6 103.7 71.5 98.5004 87.3 98.5004C98 98.5004 108.8 101 118.4 105.7C122.6 107.8 127.7 107 131.1 103.6L162.7 72.0004C165.3 69.4004 166.5 65.5004 165.7 61.9004C165.2 59.3004 164.9 56.8004 164.9 54.2004C164.9 48.7004 166.1 43.2004 168.5 38.2004L217.7 87.4004C212.8 89.9004 207.3 91.1004 201.7 91.1004Z" fill="black"/>
<rect x="162" y="36" width="25" height="63" fill="black"/>
<rect x="181" y="48" width="21" height="55" fill="black"/>
<rect x="195" y="64" width="25" height="27" fill="black"/>
<rect x="43" y="96" width="140" height="26" fill="black"/>
<rect x="52" y="122" width="112" height="26" fill="black"/>
<rect x="77" y="143" width="91" height="26" fill="black"/>
<rect x="97" y="169" width="71" height="26" fill="black"/>
<rect x="123" y="190" width="34" height="26" fill="black"/>
<rect x="133" y="70" width="71" height="26" fill="black"/>
</svg>
