<?xml version="1.0" encoding="utf-8"?>
<!-- Svg Vector Icons : http://www.onlinewebfonts.com/icon -->
<!DOCTYPE svg PUBLIC "-//W3C//DTD SVG 1.1//EN" "http://www.w3.org/Graphics/SVG/1.1/DTD/svg11.dtd">
<svg version="1.1" xmlns="http://www.w3.org/2000/svg" xmlns:xlink="http://www.w3.org/1999/xlink" x="0px" y="0px" viewBox="0 0 256 256" enable-background="new 0 0 256 256" xml:space="preserve">
<metadata> Svg Vector Icons : http://www.onlinewebfonts.com/icon </metadata>
<g><g><g><g id="Pin"><g><path fill="#000000" d="M242.6,81.1l-67.7-67.8c-2.1-2.1-5.1-3.2-7.9-3.4c-3,0-5.8,1.4-7.9,3.5c-12,12.6-17.7,29.7-15.9,46.8l-22.3,22.3c-10.6-4.1-22-6.3-33.4-6.3c-24.6,0-47.7,9.6-65.1,26.9l-1.7,1.6c-2.1,2.1-3.3,4.9-3.3,7.8c0,2.9,1.2,5.8,3.3,7.8l45.3,45.3L11.6,234c-1,1.3-1.6,2.9-1.6,4.6c0,4.1,3.3,7.4,7.4,7.4c1.7,0,3.3-0.6,4.6-1.6L90,190.1l45.3,45.3c2.1,2.1,4.9,3.3,7.8,3.3c2.9,0,5.8-1.2,7.8-3.3l1.6-1.6c26-26,33.9-64.7,20.7-98.5l22.3-22.3c17.2,1.8,34.3-4,46.8-15.9c2.1-2,3.5-4.9,3.5-7.9C246,86.1,244.7,83.2,242.6,81.1z M201.7,91.1c-2.6,0-5.2-0.3-7.7-0.8c-3.7-0.8-7.5,0.4-10.1,3l-31.6,31.6c-3.3,3.3-4.2,8.5-2.1,12.7c12,24.3,8.8,53-7.5,73.9l-98.3-98.3c12.2-9.5,27.1-14.7,42.9-14.7c10.7,0,21.5,2.5,31.1,7.2c4.2,2.1,9.3,1.3,12.7-2.1l31.6-31.6c2.6-2.6,3.8-6.5,3-10.1c-0.5-2.6-0.8-5.1-0.8-7.7c0-5.5,1.2-11,3.6-16l49.2,49.2C212.8,89.9,207.3,91.1,201.7,91.1z"/></g></g></g><g></g><g></g><g></g><g></g><g></g><g></g><g></g><g></g><g></g><g></g><g></g><g></g><g></g><g></g><g></g></g></g>
</svg>