<svg width="20" height="20" viewBox="0 0 20 20" fill="current" xmlns="http://www.w3.org/2000/svg">
<path fill-rule="evenodd" clip-rule="evenodd" d="M0.833984 2.50033C0.833984 2.04009 1.20708 1.66699 1.66732 1.66699H6.66732C7.77239 1.66699 8.8322 2.10598 9.6136 2.88738C10.395 3.66878 10.834 4.72859 10.834 5.83366V17.5003C10.834 17.9606 10.4609 18.3337 10.0007 18.3337C9.54041 18.3337 9.16732 17.9606 9.16732 17.5003C9.16732 17.0583 8.99172 16.6344 8.67916 16.3218C8.3666 16.0093 7.94268 15.8337 7.50065 15.8337H1.66732C1.20708 15.8337 0.833984 15.4606 0.833984 15.0003V2.50033ZM9.16732 14.6136V5.83366C9.16732 5.17062 8.90393 4.53473 8.43509 4.06589C7.96624 3.59705 7.33036 3.33366 6.66732 3.33366H2.50065V14.167H7.50065C8.09084 14.167 8.6649 14.3235 9.16732 14.6136Z" fill="current"/>
<path fill-rule="evenodd" clip-rule="evenodd" d="M10.3864 2.88738C11.1678 2.10598 12.2276 1.66699 13.3327 1.66699H18.3327C18.7929 1.66699 19.166 2.04009 19.166 2.50033V15.0003C19.166 15.4606 18.7929 15.8337 18.3327 15.8337H12.4993C12.0573 15.8337 11.6334 16.0093 11.3208 16.3218C11.0083 16.6344 10.8327 17.0583 10.8327 17.5003C10.8327 17.9606 10.4596 18.3337 9.99935 18.3337C9.53911 18.3337 9.16602 17.9606 9.16602 17.5003V5.83366C9.16602 4.72859 9.605 3.66878 10.3864 2.88738ZM10.8327 14.6136C11.3351 14.3235 11.9092 14.167 12.4993 14.167H17.4993V3.33366H13.3327C12.6696 3.33366 12.0338 3.59705 11.5649 4.06589C11.0961 4.53473 10.8327 5.17062 10.8327 5.83366V14.6136Z" fill="current"/>
</svg>
