<svg width="23" height="23" viewBox="0 0 23 23" fill="none" xmlns="http://www.w3.org/2000/svg">
<path d="M16.438 14.5513H15.3991L15.0309 14.2117C16.3196 12.7777 17.0955 10.9161 17.0955 8.89094C17.0955 4.37522 13.2687 0.714844 8.54774 0.714844C3.82676 0.714844 0 4.37522 0 8.89094C0 13.4067 3.82676 17.067 8.54774 17.067C10.665 17.067 12.6112 16.3249 14.1103 15.0922L14.4654 15.4444V16.4381L21.0406 22.7148L23 20.8406L16.438 14.5513ZM8.54774 14.5513C5.2733 14.5513 2.63007 12.023 2.63007 8.89094C2.63007 5.75887 5.2733 3.23057 8.54774 3.23057C11.8222 3.23057 14.4654 5.75887 14.4654 8.89094C14.4654 12.023 11.8222 14.5513 8.54774 14.5513Z" fill="#B6B7BB"/>
</svg>
