<svg width="23" height="22" viewBox="0 0 23 22" fill="none" xmlns="http://www.w3.org/2000/svg">
<path d="M16.438 13.8365H15.3991L15.0309 13.4969C16.3196 12.0629 17.0955 10.2013 17.0955 8.1761C17.0955 3.66038 13.2687 0 8.54774 0C3.82676 0 0 3.66038 0 8.1761C0 12.6918 3.82676 16.3522 8.54774 16.3522C10.665 16.3522 12.6112 15.6101 14.1103 14.3774L14.4654 14.7296V15.7233L21.0406 22L23 20.1258L16.438 13.8365ZM8.54774 13.8365C5.2733 13.8365 2.63007 11.3082 2.63007 8.1761C2.63007 5.04402 5.2733 2.51572 8.54774 2.51572C11.8222 2.51572 14.4654 5.04402 14.4654 8.1761C14.4654 11.3082 11.8222 13.8365 8.54774 13.8365Z" fill="#333333"/>
</svg>
