<svg width="26" height="26" viewBox="0 0 26 26" fill="none" xmlns="http://www.w3.org/2000/svg">
<g clip-path="url(#clip0_522_1167)">
<path fill-rule="evenodd" clip-rule="evenodd" d="M12.9993 10.8337C11.8027 10.8337 10.8327 11.8037 10.8327 13.0003C10.8327 14.1969 11.8027 15.167 12.9993 15.167C14.196 15.167 15.166 14.1969 15.166 13.0003C15.166 11.8037 14.196 10.8337 12.9993 10.8337ZM8.66602 13.0003C8.66602 10.6071 10.6061 8.66699 12.9993 8.66699C15.3926 8.66699 17.3327 10.6071 17.3327 13.0003C17.3327 15.3936 15.3926 17.3337 12.9993 17.3337C10.6061 17.3337 8.66602 15.3936 8.66602 13.0003Z" fill="black"/>
<path fill-rule="evenodd" clip-rule="evenodd" d="M13 2.16667C12.7127 2.16667 12.4371 2.2808 12.234 2.48397C12.0308 2.68713 11.9167 2.96268 11.9167 3.25V3.43849C11.9144 3.99836 11.7485 4.54537 11.4394 5.01217C11.1303 5.47896 10.6914 5.84518 10.1768 6.06573C10.0852 6.10499 9.98879 6.13134 9.89041 6.1442C9.42281 6.30794 8.91944 6.34831 8.42942 6.25946C7.865 6.15712 7.34419 5.88805 6.93413 5.48693L6.92559 5.47858L6.86063 5.41353C6.76002 5.31281 6.64012 5.23248 6.5086 5.17796C6.37709 5.12344 6.23612 5.09538 6.09375 5.09538C5.95138 5.09538 5.81041 5.12344 5.6789 5.17796C5.54738 5.23248 5.4279 5.31238 5.32729 5.41311L5.32644 5.41396C5.22572 5.51457 5.14581 5.63405 5.09129 5.76556C5.03677 5.89708 5.00871 6.03805 5.00871 6.18042C5.00871 6.32278 5.03677 6.46375 5.09129 6.59527C5.14581 6.72678 5.22572 6.84626 5.32644 6.94688L5.40032 7.02075C5.80143 7.43081 6.07045 7.95167 6.17279 8.51609C6.27309 9.06927 6.20872 9.63946 5.98807 10.156C5.78705 10.6831 5.43506 11.1396 4.9758 11.468C4.50726 11.8032 3.94873 11.9896 3.37283 12.003L3.3475 12.0033H3.25C2.96268 12.0033 2.68713 12.1175 2.48397 12.3206C2.2808 12.5238 2.16667 12.7993 2.16667 13.0867C2.16667 13.374 2.2808 13.6495 2.48397 13.8527C2.68713 14.0559 2.96268 14.17 3.25 14.17H3.43849C3.99836 14.1722 4.54537 14.3381 5.01217 14.6473C5.47734 14.9553 5.84263 15.3923 6.06343 15.9045C6.29317 16.4279 6.36145 17.0081 6.25946 17.5706C6.15712 18.135 5.88805 18.6558 5.48693 19.0659L5.47858 19.0744L5.41353 19.1394C5.31281 19.24 5.23248 19.3599 5.17796 19.4914C5.12344 19.6229 5.09538 19.7639 5.09538 19.9063C5.09538 20.0486 5.12344 20.1896 5.17796 20.3211C5.23248 20.4526 5.31238 20.5721 5.41311 20.6727L5.41396 20.6736C5.51457 20.7743 5.63405 20.8542 5.76556 20.9087C5.89708 20.9632 6.03805 20.9913 6.18042 20.9913C6.32278 20.9913 6.46375 20.9632 6.59527 20.9087C6.72679 20.8542 6.84626 20.7743 6.94688 20.6736L7.02075 20.5997C7.43081 20.1986 7.95167 19.9295 8.51609 19.8272C9.06926 19.7269 9.63946 19.7913 10.156 20.0119C10.6831 20.213 11.1396 20.5649 11.468 21.0242C11.8032 21.4927 11.9896 22.0513 12.003 22.6272L12.0033 22.6525V22.75C12.0033 23.0373 12.1175 23.3129 12.3206 23.516C12.5238 23.7192 12.7993 23.8333 13.0867 23.8333C13.374 23.8333 13.6495 23.7192 13.8527 23.516C14.0559 23.3129 14.17 23.0373 14.17 22.75V22.5658L14.17 22.5615C14.1722 22.0016 14.3381 21.4546 14.6473 20.9878C14.9554 20.5226 15.3923 20.1573 15.9047 19.9365C16.428 19.7068 17.0081 19.6386 17.5706 19.7405C18.135 19.8429 18.6558 20.112 19.0659 20.5131L19.0744 20.5214L19.1394 20.5865C19.24 20.6872 19.3599 20.7675 19.4914 20.822C19.6229 20.8766 19.7639 20.9046 19.9063 20.9046C20.0486 20.9046 20.1896 20.8766 20.3211 20.822C20.4526 20.7675 20.5721 20.6876 20.6727 20.5869L20.6736 20.586C20.7743 20.4854 20.8542 20.366 20.9087 20.2344C20.9632 20.1029 20.9913 19.9619 20.9913 19.8196C20.9913 19.6772 20.9632 19.5362 20.9087 19.4047C20.8542 19.2732 20.7743 19.1537 20.6736 19.0531L20.5997 18.9793C20.1986 18.5692 19.9295 18.0483 19.8272 17.4839C19.7252 16.9214 19.7935 16.3414 20.0232 15.818C20.244 15.3057 20.6093 14.8687 21.0745 14.5606C21.5413 14.2515 22.0883 14.0856 22.6482 14.0833L22.6525 14.0833L22.75 14.0833C23.0373 14.0833 23.3129 13.9692 23.516 13.766C23.7192 13.5629 23.8333 13.2873 23.8333 13C23.8333 12.7127 23.7192 12.4371 23.516 12.234C23.3129 12.0308 23.0373 11.9167 22.75 11.9167H22.5658L22.5615 11.9167C22.0016 11.9144 21.4546 11.7485 20.9878 11.4394C20.521 11.1303 20.1548 10.6914 19.9343 10.1768C19.895 10.0852 19.8687 9.98879 19.8558 9.89041C19.6921 9.42281 19.6517 8.91944 19.7405 8.42942C19.8429 7.865 20.112 7.34419 20.5131 6.93413L20.5214 6.92559L20.5865 6.86064C20.6872 6.76002 20.7675 6.64012 20.822 6.5086C20.8766 6.37709 20.9046 6.23612 20.9046 6.09375C20.9046 5.95139 20.8766 5.81041 20.822 5.6789C20.7675 5.54739 20.6876 5.42791 20.5869 5.32729L20.586 5.32644C20.4854 5.22571 20.3659 5.14581 20.2344 5.09129C20.1029 5.03677 19.9619 5.00871 19.8196 5.00871C19.6772 5.00871 19.5362 5.03677 19.4047 5.09129C19.2732 5.14581 19.1537 5.22572 19.0531 5.32644L18.9793 5.40032C18.5692 5.80143 18.0483 6.07045 17.4839 6.17279C16.9214 6.27479 16.3413 6.2065 15.8179 5.97676C15.3056 5.75597 14.8687 5.39068 14.5606 4.9255C14.2515 4.4587 14.0856 3.9117 14.0833 3.35182L14.0833 3.3475V3.25C14.0833 2.96268 13.9692 2.68713 13.766 2.48397C13.5629 2.2808 13.2873 2.16667 13 2.16667ZM21.0167 16.25L22.0078 16.6874C21.951 16.8161 21.934 16.9589 21.9591 17.0974C21.9839 17.2343 22.0488 17.3607 22.1454 17.4608L22.2048 17.5202C22.2049 17.5203 22.2046 17.5201 22.2048 17.5202C22.5068 17.822 22.7467 18.1807 22.9102 18.575C23.0738 18.9696 23.158 19.3925 23.158 19.8196C23.158 20.2467 23.0738 20.6696 22.9102 21.0641C22.7467 21.4587 22.5069 21.8171 22.2048 22.119L21.4392 21.3525L22.2056 22.1181C21.9038 22.4203 21.5454 22.66 21.1508 22.8236C20.7563 22.9871 20.3334 23.0713 19.9063 23.0713C19.4791 23.0713 19.0562 22.9871 18.6617 22.8236C18.2673 22.6601 17.909 22.4205 17.6073 22.1185C17.6072 22.1184 17.6074 22.1187 17.6073 22.1185L17.5475 22.0587C17.4474 21.9621 17.3209 21.8973 17.184 21.8724C17.0456 21.8473 16.9028 21.8643 16.7741 21.9211L16.7635 21.9258C16.6372 21.9799 16.5296 22.0697 16.4537 22.1842C16.3782 22.2982 16.3375 22.4318 16.3367 22.5685V22.75C16.3367 23.612 15.9943 24.4386 15.3848 25.0481C14.7753 25.6576 13.9486 26 13.0867 26C12.2247 26 11.3981 25.6576 10.7886 25.0481C10.1791 24.4386 9.83667 23.612 9.83667 22.75V22.6681C9.83153 22.5303 9.78604 22.3969 9.70574 22.2847C9.62354 22.1697 9.50867 22.0822 9.37605 22.0334C9.35463 22.0255 9.33347 22.017 9.31259 22.0078C9.18387 21.951 9.04108 21.934 8.90264 21.9591C8.7657 21.9839 8.63923 22.0488 8.53916 22.1454L8.47979 22.2048C8.47965 22.2049 8.47993 22.2046 8.47979 22.2048C8.17804 22.5068 7.81933 22.7467 7.42497 22.9102C7.03043 23.0738 6.60752 23.158 6.18042 23.158C5.75331 23.158 5.3304 23.0738 4.93586 22.9102C4.54169 22.7468 4.18356 22.5074 3.88189 22.2056C3.57972 21.9038 3.34 21.5453 3.17645 21.1508C3.0129 20.7563 2.92871 20.3334 2.92871 19.9063C2.92871 19.4791 3.0129 19.0562 3.17645 18.6617C3.34 18.2672 3.57972 17.9087 3.88189 17.6069L3.94129 17.5475C4.03789 17.4474 4.10272 17.321 4.12755 17.184C4.15265 17.0456 4.13571 16.9028 4.0789 16.7741L4.07421 16.7635C4.02011 16.6372 3.93034 16.5296 3.81584 16.4537C3.70179 16.3782 3.56822 16.3375 3.43146 16.3367H3.25C2.38805 16.3367 1.5614 15.9943 0.951903 15.3848C0.34241 14.7753 0 13.9486 0 13.0867C0 12.2247 0.34241 11.3981 0.951903 10.7886C1.5614 10.1791 2.38805 9.83667 3.25 9.83667H3.33194C3.46974 9.83153 3.60307 9.78604 3.71535 9.70574C3.83027 9.62354 3.91781 9.50867 3.96659 9.37605C3.97446 9.35463 3.98302 9.33347 3.99223 9.31259C4.04904 9.18387 4.06599 9.04108 4.04089 8.90264C4.01606 8.76571 3.95122 8.63924 3.85461 8.53917L3.79523 8.47979C3.49305 8.17795 3.25334 7.81952 3.08978 7.42497C2.92623 7.03043 2.84205 6.60752 2.84205 6.18042C2.84205 5.75332 2.92623 5.3304 3.08978 4.93586C3.25326 4.5415 3.49283 4.18322 3.7948 3.88147C4.09655 3.5795 4.45484 3.33993 4.84919 3.17645C5.24374 3.0129 5.66665 2.92871 6.09375 2.92871C6.52085 2.92871 6.94376 3.0129 7.33831 3.17645C7.73285 3.34 8.09129 3.57972 8.39313 3.88189L8.4525 3.94127C8.55257 4.03789 8.67904 4.10272 8.81597 4.12755C8.95442 4.15265 9.0972 4.13571 9.22592 4.0789C9.2953 4.04828 9.3675 4.02512 9.44133 4.00966C9.51686 3.95839 9.58206 3.89267 9.63294 3.81584C9.70847 3.70179 9.74914 3.56822 9.75 3.43146V3.25C9.75 2.38805 10.0924 1.5614 10.7019 0.951903C11.3114 0.34241 12.138 0 13 0C13.862 0 14.6886 0.34241 15.2981 0.951903C15.9076 1.5614 16.25 2.38805 16.25 3.25V3.34479C16.2509 3.48156 16.2915 3.61513 16.3671 3.72918C16.4429 3.84367 16.5505 3.9335 16.6768 3.9876L16.6874 3.99218C16.8162 4.04898 16.9589 4.06599 17.0974 4.04089C17.2343 4.01606 17.3607 3.95123 17.4608 3.85462L17.5202 3.79523C17.822 3.49305 18.1805 3.25334 18.575 3.08978C18.9696 2.92623 19.3925 2.84205 19.8196 2.84205C20.2467 2.84205 20.6696 2.92623 21.0641 3.08978C21.4587 3.25334 21.8171 3.49305 22.119 3.79523C22.4207 4.09689 22.6602 4.45502 22.8236 4.84919C22.9871 5.24374 23.0713 5.66665 23.0713 6.09375C23.0713 6.52085 22.9871 6.94376 22.8236 7.33831C22.6601 7.73266 22.4205 8.09095 22.1185 8.3927C22.1184 8.39284 22.1187 8.39255 22.1185 8.3927L22.0587 8.4525C21.9621 8.55257 21.8973 8.67904 21.8724 8.81597C21.8473 8.95442 21.8643 9.0972 21.9211 9.22592C21.9517 9.2953 21.9749 9.3675 21.9903 9.44132C22.0416 9.51686 22.1073 9.58206 22.1842 9.63294C22.2982 9.70847 22.4318 9.74914 22.5685 9.75H22.75C23.612 9.75 24.4386 10.0924 25.0481 10.7019C25.6576 11.3114 26 12.138 26 13C26 13.862 25.6576 14.6886 25.0481 15.2981C24.4386 15.9076 23.612 16.25 22.75 16.25H22.6552C22.5184 16.2509 22.3849 16.2915 22.2708 16.3671C22.1563 16.4429 22.0665 16.5505 22.0124 16.6768L21.0167 16.25Z" fill="black"/>
</g>
<defs>
<clipPath id="clip0_522_1167">
<rect width="26" height="26" fill="white"/>
</clipPath>
</defs>
</svg>
