<svg width="20" height="20" viewBox="0 0 20 20" fill="current" xmlns="http://www.w3.org/2000/svg">
<path fill-rule="evenodd" clip-rule="evenodd" d="M10.0007 0.833008C10.3179 0.833008 10.6075 1.01307 10.7479 1.29749L13.1292 6.12173L18.4545 6.9001C18.7683 6.94597 19.0289 7.16597 19.1267 7.46765C19.2245 7.76932 19.1426 8.10036 18.9155 8.32164L15.0628 12.0741L15.972 17.3755C16.0256 17.6881 15.8971 18.0041 15.6405 18.1906C15.3838 18.377 15.0436 18.4016 14.7628 18.2539L10.0007 15.7495L5.23855 18.2539C4.95779 18.4016 4.61755 18.377 4.3609 18.1906C4.10425 18.0041 3.97571 17.6881 4.02933 17.3755L4.93857 12.0741L1.0859 8.32164C0.858716 8.10036 0.776822 7.76932 0.874637 7.46765C0.972452 7.16597 1.23302 6.94597 1.54682 6.9001L6.87212 6.12173L9.25342 1.29749C9.39381 1.01307 9.68349 0.833008 10.0007 0.833008ZM10.0007 3.54905L8.17293 7.25186C8.05165 7.49757 7.81733 7.66795 7.5462 7.70758L3.45768 8.30518L6.41545 11.186C6.61201 11.3775 6.70173 11.6534 6.65535 11.9239L5.95749 15.9927L9.6128 14.0704C9.85562 13.9427 10.1457 13.9427 10.3886 14.0704L14.0439 15.9927L13.346 11.9239C13.2996 11.6534 13.3893 11.3775 13.5859 11.186L16.5437 8.30518L12.4552 7.70758C12.184 7.66795 11.9497 7.49757 11.8284 7.25186L10.0007 3.54905Z" fill="current"/>
</svg>
