<svg width="20" height="20" viewBox="0 0 20 20" fill="current" xmlns="http://www.w3.org/2000/svg">
<path fill-rule="evenodd" clip-rule="evenodd" d="M8.40581 1.32789C8.53956 1.02695 8.83799 0.833008 9.16732 0.833008C10.0514 0.833008 10.8992 1.1842 11.5243 1.80932C12.1495 2.43444 12.5007 3.28229 12.5007 4.16634V6.66634H16.3797C16.7404 6.663 17.0975 6.73773 17.4265 6.88542C17.7571 7.03381 18.0516 7.25231 18.2894 7.52579C18.5272 7.79926 18.7027 8.12117 18.8037 8.46921C18.9048 8.81725 18.9289 9.18309 18.8745 9.5414L17.7246 17.0413C17.7245 17.0415 17.7246 17.0411 17.7246 17.0413C17.634 17.6372 17.3312 18.1809 16.8719 18.5713C16.4138 18.9607 15.8308 19.1719 15.2297 19.1663H3.33398C2.67094 19.1663 2.03506 18.9029 1.56622 18.4341C1.09738 17.9653 0.833984 17.3294 0.833984 16.6663V10.833C0.833984 10.17 1.09738 9.53408 1.56622 9.06524C2.03506 8.5964 2.67094 8.33301 3.33398 8.33301H5.29242L8.40581 1.32789ZM5.00065 9.99967H3.33398C3.11297 9.99967 2.90101 10.0875 2.74473 10.2438C2.58845 10.4 2.50065 10.612 2.50065 10.833V16.6663C2.50065 16.8874 2.58845 17.0993 2.74473 17.2556C2.90101 17.4119 3.11297 17.4997 3.33398 17.4997H5.00065V9.99967ZM6.66732 17.4997H15.2434C15.4444 17.5019 15.6394 17.4316 15.7925 17.3014C15.9457 17.1712 16.0466 16.9901 16.0767 16.7914L17.2268 9.29129C17.2267 9.2914 17.2268 9.29118 17.2268 9.29129C17.2448 9.17196 17.2368 9.0498 17.2031 8.93389C17.1695 8.81788 17.111 8.71058 17.0317 8.61942C16.9524 8.52826 16.8543 8.45543 16.7441 8.40596C16.6339 8.3565 16.5142 8.33159 16.3934 8.33295L16.384 8.33306L11.6673 8.33301C11.2071 8.33301 10.834 7.95991 10.834 7.49967V4.16634C10.834 3.72431 10.6584 3.30039 10.3458 2.98783C10.156 2.79796 9.925 2.65863 9.67384 2.57851L6.66732 9.34319V17.4997Z" fill="current"/>
</svg>
